<mxfile host="Electron" agent="Mozilla/5.0 (X11; Linux x86_64) AppleWebKit/537.36 (KHTML, like Gecko) draw.io/24.7.8 Chrome/128.0.6613.36 Electron/32.0.1 Safari/537.36" version="24.7.8">
  <diagram name="Page-1" id="2K4qOzKMvEv2gDJJYcip">
    <mxGraphModel dx="1335" dy="730" grid="1" gridSize="10" guides="1" tooltips="1" connect="1" arrows="1" fold="1" page="1" pageScale="1" pageWidth="1169" pageHeight="827" math="0" shadow="0">
      <root>
        <mxCell id="0" />
        <mxCell id="1" parent="0" />
        <mxCell id="opBTZJq-6XGTckG7SBnG-1" value="&lt;font style=&quot;font-size: 17px;&quot;&gt;Kafka&lt;/font&gt;&lt;div style=&quot;font-size: 17px;&quot;&gt;&lt;font style=&quot;font-size: 17px;&quot;&gt;topic&lt;/font&gt;&lt;/div&gt;&lt;div style=&quot;font-size: 17px;&quot;&gt;&lt;i style=&quot;&quot;&gt;&lt;font style=&quot;font-size: 17px;&quot;&gt;http-request&lt;/font&gt;&lt;/i&gt;&lt;/div&gt;" style="shape=cylinder3;whiteSpace=wrap;html=1;boundedLbl=1;backgroundOutline=1;size=15;fillColor=#dae8fc;strokeColor=#6c8ebf;" parent="1" vertex="1">
          <mxGeometry x="50" y="300" width="100" height="190" as="geometry" />
        </mxCell>
        <mxCell id="opBTZJq-6XGTckG7SBnG-2" value="" style="rounded=0;whiteSpace=wrap;html=1;" parent="1" vertex="1">
          <mxGeometry x="290" y="160" width="750" height="850" as="geometry" />
        </mxCell>
        <mxCell id="opBTZJq-6XGTckG7SBnG-3" value="" style="rounded=0;whiteSpace=wrap;html=1;" parent="1" vertex="1">
          <mxGeometry x="310" y="170" width="710" height="640" as="geometry" />
        </mxCell>
        <mxCell id="opBTZJq-6XGTckG7SBnG-5" value="&lt;font style=&quot;font-size: 20px;&quot;&gt;Kafka Connect Cluster&lt;/font&gt;" style="text;html=1;align=center;verticalAlign=middle;whiteSpace=wrap;rounded=0;" parent="1" vertex="1">
          <mxGeometry x="545" y="950" width="210" height="30" as="geometry" />
        </mxCell>
        <mxCell id="opBTZJq-6XGTckG7SBnG-23" value="" style="endArrow=classic;html=1;rounded=0;entryX=0.058;entryY=0.959;entryDx=0;entryDy=0;entryPerimeter=0;exitX=0.5;exitY=0;exitDx=0;exitDy=0;fillColor=#f8cecc;strokeColor=#000000;" parent="1" source="HtiEfCj0A7gehNwZgP48-17" target="opBTZJq-6XGTckG7SBnG-1" edge="1">
          <mxGeometry width="50" height="50" relative="1" as="geometry">
            <mxPoint x="110" y="190" as="sourcePoint" />
            <mxPoint x="170" y="320" as="targetPoint" />
          </mxGeometry>
        </mxCell>
        <mxCell id="opBTZJq-6XGTckG7SBnG-14" value="" style="group;fillColor=#dae8fc;strokeColor=#6c8ebf;" parent="1" vertex="1" connectable="0">
          <mxGeometry x="40" y="700" width="100" height="60" as="geometry" />
        </mxCell>
        <mxCell id="opBTZJq-6XGTckG7SBnG-15" value="" style="group;fillColor=#dae8fc;strokeColor=#6c8ebf;" parent="opBTZJq-6XGTckG7SBnG-14" vertex="1" connectable="0">
          <mxGeometry width="100" height="59.99999999999999" as="geometry" />
        </mxCell>
        <mxCell id="opBTZJq-6XGTckG7SBnG-11" value="" style="shape=message;html=1;html=1;outlineConnect=0;labelPosition=center;verticalLabelPosition=bottom;align=center;verticalAlign=top;fillColor=#f8cecc;strokeColor=#b85450;" parent="opBTZJq-6XGTckG7SBnG-15" vertex="1">
          <mxGeometry width="100" height="59.99999999999999" as="geometry" />
        </mxCell>
        <mxCell id="opBTZJq-6XGTckG7SBnG-12" value="&lt;font style=&quot;font-size: 13px;&quot;&gt;fail.net&lt;/font&gt;&lt;div style=&quot;font-size: 13px;&quot;&gt;&lt;font style=&quot;font-size: 13px;&quot;&gt;POST&lt;/font&gt;&lt;/div&gt;&lt;div style=&quot;font-size: 13px;&quot;&gt;&lt;font style=&quot;font-size: 13px;&quot;&gt;/foo&lt;/font&gt;&lt;/div&gt;" style="text;html=1;align=center;verticalAlign=middle;whiteSpace=wrap;rounded=0;" parent="opBTZJq-6XGTckG7SBnG-15" vertex="1">
          <mxGeometry x="5.2631578947368425" y="33.19360426382412" width="84.21052631578948" height="18.000000000000004" as="geometry" />
        </mxCell>
        <mxCell id="opBTZJq-6XGTckG7SBnG-19" value="&lt;font style=&quot;font-size: 16px;&quot;&gt;HTTP server&lt;/font&gt;&lt;div style=&quot;font-size: 16px;&quot;&gt;&lt;font style=&quot;font-size: 16px;&quot;&gt;myserver1.com&lt;/font&gt;&lt;/div&gt;" style="rounded=0;whiteSpace=wrap;html=1;fillColor=#d5e8d4;strokeColor=#82b366;" parent="1" vertex="1">
          <mxGeometry x="330" y="60" width="180" height="70" as="geometry" />
        </mxCell>
        <mxCell id="opBTZJq-6XGTckG7SBnG-20" value="&lt;font style=&quot;font-size: 16px;&quot;&gt;HTTP server&lt;/font&gt;&lt;div style=&quot;font-size: 16px;&quot;&gt;&lt;font style=&quot;font-size: 16px;&quot;&gt;fail.net&lt;/font&gt;&lt;/div&gt;" style="rounded=0;whiteSpace=wrap;html=1;fillColor=#f8cecc;strokeColor=#b85450;" parent="1" vertex="1">
          <mxGeometry x="580" y="60" width="180" height="70" as="geometry" />
        </mxCell>
        <mxCell id="opBTZJq-6XGTckG7SBnG-22" value="" style="endArrow=classic;html=1;rounded=0;entryX=0.5;entryY=0;entryDx=0;entryDy=0;entryPerimeter=0;fillColor=#d5e8d4;strokeColor=#000000;exitX=0.75;exitY=1;exitDx=0;exitDy=0;" parent="1" target="opBTZJq-6XGTckG7SBnG-1" edge="1" source="HtiEfCj0A7gehNwZgP48-16">
          <mxGeometry width="50" height="50" relative="1" as="geometry">
            <mxPoint x="20" y="180" as="sourcePoint" />
            <mxPoint x="610" y="330" as="targetPoint" />
          </mxGeometry>
        </mxCell>
        <mxCell id="opBTZJq-6XGTckG7SBnG-25" value="" style="rounded=0;whiteSpace=wrap;html=1;fontSize=17;" parent="1" vertex="1">
          <mxGeometry x="322" y="190" width="658" height="350" as="geometry" />
        </mxCell>
        <mxCell id="opBTZJq-6XGTckG7SBnG-26" value="success ?" style="strokeWidth=2;html=1;shape=mxgraph.flowchart.decision;whiteSpace=wrap;" parent="1" vertex="1">
          <mxGeometry x="730" y="280" width="80" height="90" as="geometry" />
        </mxCell>
        <mxCell id="opBTZJq-6XGTckG7SBnG-16" value="" style="group;fillColor=#dae8fc;strokeColor=#6c8ebf;" parent="1" vertex="1" connectable="0">
          <mxGeometry x="60" y="180" width="100" height="70" as="geometry" />
        </mxCell>
        <mxCell id="opBTZJq-6XGTckG7SBnG-17" value="" style="shape=message;html=1;html=1;outlineConnect=0;labelPosition=center;verticalLabelPosition=bottom;align=center;verticalAlign=top;fillColor=#d5e8d4;strokeColor=#82b366;" parent="opBTZJq-6XGTckG7SBnG-16" vertex="1">
          <mxGeometry width="100" height="70" as="geometry" />
        </mxCell>
        <mxCell id="opBTZJq-6XGTckG7SBnG-18" value="&lt;div style=&quot;font-size: 11px;&quot;&gt;&lt;font style=&quot;font-size: 11px;&quot;&gt;myserver1.com&lt;/font&gt;&lt;/div&gt;&lt;div style=&quot;font-size: 11px;&quot;&gt;&lt;font style=&quot;font-size: 11px;&quot;&gt;GET&lt;/font&gt;&lt;/div&gt;&lt;div style=&quot;font-size: 11px;&quot;&gt;&lt;font style=&quot;font-size: 11px;&quot;&gt;/test&lt;/font&gt;&lt;/div&gt;" style="text;html=1;align=center;verticalAlign=middle;whiteSpace=wrap;rounded=0;" parent="opBTZJq-6XGTckG7SBnG-16" vertex="1">
          <mxGeometry x="5.2631578947368425" y="42.2701754385965" width="84.21052631578948" height="21.000000000000007" as="geometry" />
        </mxCell>
        <mxCell id="opBTZJq-6XGTckG7SBnG-28" value="Connector" style="rounded=0;whiteSpace=wrap;html=1;" parent="1" vertex="1">
          <mxGeometry x="322" y="740" width="660" height="60" as="geometry" />
        </mxCell>
        <mxCell id="mRzZPIl0D3V7TroaUUCZ-1" value="split&lt;div&gt;message&lt;/div&gt;" style="rounded=0;whiteSpace=wrap;html=1;fillColor=#dae8fc;strokeColor=#6c8ebf;" parent="1" vertex="1">
          <mxGeometry x="330" y="314" width="50" height="190" as="geometry" />
        </mxCell>
        <mxCell id="mRzZPIl0D3V7TroaUUCZ-4" value="" style="edgeStyle=orthogonalEdgeStyle;rounded=0;orthogonalLoop=1;jettySize=auto;html=1;" parent="1" edge="1">
          <mxGeometry relative="1" as="geometry">
            <mxPoint x="445" y="421" as="sourcePoint" />
            <mxPoint x="460" y="421" as="targetPoint" />
          </mxGeometry>
        </mxCell>
        <mxCell id="mRzZPIl0D3V7TroaUUCZ-2" value="map&lt;div&gt;message&lt;/div&gt;&lt;div&gt;into&lt;/div&gt;&lt;div&gt;request&lt;/div&gt;" style="rounded=0;whiteSpace=wrap;html=1;fillColor=#dae8fc;strokeColor=#6c8ebf;" parent="1" vertex="1">
          <mxGeometry x="395" y="314" width="50" height="190" as="geometry" />
        </mxCell>
        <mxCell id="mRzZPIl0D3V7TroaUUCZ-3" value="group&lt;div&gt;requests&lt;/div&gt;" style="rounded=0;whiteSpace=wrap;html=1;fillColor=#dae8fc;strokeColor=#6c8ebf;" parent="1" vertex="1">
          <mxGeometry x="460" y="314" width="50" height="190" as="geometry" />
        </mxCell>
        <mxCell id="mRzZPIl0D3V7TroaUUCZ-5" value="" style="edgeStyle=orthogonalEdgeStyle;rounded=0;orthogonalLoop=1;jettySize=auto;html=1;exitX=1;exitY=0.5;exitDx=0;exitDy=0;entryX=0;entryY=0.5;entryDx=0;entryDy=0;" parent="1" edge="1">
          <mxGeometry relative="1" as="geometry">
            <mxPoint x="380" y="420" as="sourcePoint" />
            <mxPoint x="395" y="420" as="targetPoint" />
          </mxGeometry>
        </mxCell>
        <mxCell id="mRzZPIl0D3V7TroaUUCZ-8" value="" style="group" parent="1" vertex="1" connectable="0">
          <mxGeometry x="530" y="198" width="180" height="340" as="geometry" />
        </mxCell>
        <mxCell id="mRzZPIl0D3V7TroaUUCZ-6" value="" style="rounded=0;whiteSpace=wrap;html=1;" parent="mRzZPIl0D3V7TroaUUCZ-8" vertex="1">
          <mxGeometry width="180" height="334.92537313432837" as="geometry" />
        </mxCell>
        <mxCell id="mRzZPIl0D3V7TroaUUCZ-7" value="HTTP client&lt;div&gt;configuration&lt;/div&gt;" style="text;html=1;align=center;verticalAlign=middle;whiteSpace=wrap;rounded=0;" parent="mRzZPIl0D3V7TroaUUCZ-8" vertex="1">
          <mxGeometry x="26.275862068965516" y="289.22859387274156" width="120" height="52.88295365278869" as="geometry" />
        </mxCell>
        <mxCell id="mRzZPIl0D3V7TroaUUCZ-22" value="rate limit" style="rounded=0;whiteSpace=wrap;html=1;fillColor=#dae8fc;strokeColor=#6c8ebf;" parent="mRzZPIl0D3V7TroaUUCZ-8" vertex="1">
          <mxGeometry x="8.689655172413794" y="4.7846481876332625" width="161.3793103448276" height="35.884861407249474" as="geometry" />
        </mxCell>
        <mxCell id="TH8Eyh-qqzI3hUbTMs9G-1" value="HTTP Client" style="rounded=0;whiteSpace=wrap;html=1;" parent="mRzZPIl0D3V7TroaUUCZ-8" vertex="1">
          <mxGeometry x="11.79" y="56.22" width="148.97" height="43.78" as="geometry" />
        </mxCell>
        <mxCell id="TH8Eyh-qqzI3hUbTMs9G-5" value="" style="group;fillColor=#ffe6cc;strokeColor=#d79b00;" parent="mRzZPIl0D3V7TroaUUCZ-8" vertex="1" connectable="0">
          <mxGeometry x="10" y="172" width="158.43" height="81.83" as="geometry" />
        </mxCell>
        <mxCell id="TH8Eyh-qqzI3hUbTMs9G-3" value="" style="rounded=0;whiteSpace=wrap;html=1;fillColor=#fad7ac;strokeColor=#b46504;" parent="TH8Eyh-qqzI3hUbTMs9G-5" vertex="1">
          <mxGeometry width="158.43" height="81.83" as="geometry" />
        </mxCell>
        <mxCell id="mRzZPIl0D3V7TroaUUCZ-15" value="HTTP&lt;div&gt;request&lt;/div&gt;" style="rounded=0;whiteSpace=wrap;html=1;fillColor=#ffe6cc;strokeColor=#d79b00;" parent="TH8Eyh-qqzI3hUbTMs9G-5" vertex="1">
          <mxGeometry x="6.359412397077863" y="26.004443742668954" width="60.758144347528635" height="26.491567265180908" as="geometry" />
        </mxCell>
        <mxCell id="TH8Eyh-qqzI3hUbTMs9G-4" value="HTTP&amp;nbsp;&lt;span style=&quot;background-color: initial;&quot;&gt;Exchange&lt;/span&gt;" style="text;html=1;align=center;verticalAlign=middle;whiteSpace=wrap;rounded=0;" parent="TH8Eyh-qqzI3hUbTMs9G-5" vertex="1">
          <mxGeometry x="9.290038847760757" y="64.84822611206353" width="127.7380341567104" height="16.981773887936477" as="geometry" />
        </mxCell>
        <mxCell id="TH8Eyh-qqzI3hUbTMs9G-8" value="HTTP&lt;div&gt;response&lt;/div&gt;" style="rounded=0;whiteSpace=wrap;html=1;fillColor=#ffe6cc;strokeColor=#d79b00;" parent="TH8Eyh-qqzI3hUbTMs9G-5" vertex="1">
          <mxGeometry x="84.81941239707794" y="26.00444374266896" width="60.758144347528635" height="26.491567265180908" as="geometry" />
        </mxCell>
        <mxCell id="TH8Eyh-qqzI3hUbTMs9G-2" value="" style="endArrow=classic;html=1;rounded=0;fillColor=#d5e8d4;strokeColor=#000000;exitX=0.438;exitY=-0.015;exitDx=0;exitDy=0;exitPerimeter=0;entryX=0.5;entryY=1;entryDx=0;entryDy=0;" parent="mRzZPIl0D3V7TroaUUCZ-8" source="mRzZPIl0D3V7TroaUUCZ-15" target="TH8Eyh-qqzI3hUbTMs9G-7" edge="1">
          <mxGeometry width="50" height="50" relative="1" as="geometry">
            <mxPoint x="25.68813677419401" y="220.56648000000018" as="sourcePoint" />
            <mxPoint x="26.0937931034479" y="114.84000000000015" as="targetPoint" />
          </mxGeometry>
        </mxCell>
        <mxCell id="mRzZPIl0D3V7TroaUUCZ-31" value="" style="endArrow=classic;html=1;rounded=0;fillColor=#d5e8d4;strokeColor=#82b366;exitX=0.435;exitY=0.987;exitDx=0;exitDy=0;entryX=0.25;entryY=0;entryDx=0;entryDy=0;exitPerimeter=0;" parent="mRzZPIl0D3V7TroaUUCZ-8" source="TH8Eyh-qqzI3hUbTMs9G-1" target="mRzZPIl0D3V7TroaUUCZ-30" edge="1">
          <mxGeometry width="50" height="50" relative="1" as="geometry">
            <mxPoint x="93.10344827586208" y="144.6268656716418" as="sourcePoint" />
            <mxPoint x="256.9655172413793" y="271.4925373134328" as="targetPoint" />
          </mxGeometry>
        </mxCell>
        <mxCell id="mRzZPIl0D3V7TroaUUCZ-32" value="" style="endArrow=classic;html=1;rounded=0;fillColor=#f8cecc;strokeColor=#b85450;exitX=0.603;exitY=0.993;exitDx=0;exitDy=0;entryX=0.5;entryY=0;entryDx=0;entryDy=0;exitPerimeter=0;" parent="mRzZPIl0D3V7TroaUUCZ-8" source="TH8Eyh-qqzI3hUbTMs9G-1" target="mRzZPIl0D3V7TroaUUCZ-30" edge="1">
          <mxGeometry width="50" height="50" relative="1" as="geometry">
            <mxPoint x="211.53103448275846" y="-61.250746268656684" as="sourcePoint" />
            <mxPoint x="135.3103448275862" y="65.97014925373135" as="targetPoint" />
          </mxGeometry>
        </mxCell>
        <mxCell id="TH8Eyh-qqzI3hUbTMs9G-7" value="enrich&lt;div&gt;request&lt;/div&gt;" style="rounded=0;whiteSpace=wrap;html=1;fillColor=#dae8fc;strokeColor=#6c8ebf;" parent="mRzZPIl0D3V7TroaUUCZ-8" vertex="1">
          <mxGeometry x="8.69" y="122" width="50" height="35.88" as="geometry" />
        </mxCell>
        <mxCell id="TH8Eyh-qqzI3hUbTMs9G-9" value="" style="endArrow=classic;html=1;rounded=0;fillColor=#d5e8d4;strokeColor=#000000;exitX=0.5;exitY=0;exitDx=0;exitDy=0;entryX=0.275;entryY=0.999;entryDx=0;entryDy=0;entryPerimeter=0;" parent="mRzZPIl0D3V7TroaUUCZ-8" source="TH8Eyh-qqzI3hUbTMs9G-7" target="TH8Eyh-qqzI3hUbTMs9G-1" edge="1">
          <mxGeometry width="50" height="50" relative="1" as="geometry">
            <mxPoint x="35.68813677419405" y="230.56648000000018" as="sourcePoint" />
            <mxPoint x="44" y="158" as="targetPoint" />
          </mxGeometry>
        </mxCell>
        <mxCell id="mRzZPIl0D3V7TroaUUCZ-30" value="enrich&lt;div&gt;response&lt;/div&gt;" style="rounded=0;whiteSpace=wrap;html=1;fillColor=#dae8fc;strokeColor=#6c8ebf;" parent="mRzZPIl0D3V7TroaUUCZ-8" vertex="1">
          <mxGeometry x="67.85710083315013" y="121.35436524406748" width="92.90038847760755" height="36.527478119642694" as="geometry" />
        </mxCell>
        <mxCell id="TH8Eyh-qqzI3hUbTMs9G-10" value="" style="endArrow=classic;html=1;rounded=0;fillColor=#d5e8d4;strokeColor=#000000;entryX=0.5;entryY=0;entryDx=0;entryDy=0;" parent="mRzZPIl0D3V7TroaUUCZ-8" source="mRzZPIl0D3V7TroaUUCZ-30" target="TH8Eyh-qqzI3hUbTMs9G-8" edge="1">
          <mxGeometry width="50" height="50" relative="1" as="geometry">
            <mxPoint x="44" y="132" as="sourcePoint" />
            <mxPoint x="63" y="110" as="targetPoint" />
          </mxGeometry>
        </mxCell>
        <mxCell id="mRzZPIl0D3V7TroaUUCZ-10" value="&lt;font style=&quot;font-size: 17px;&quot;&gt;Kafka&lt;/font&gt;&lt;div style=&quot;font-size: 17px;&quot;&gt;&lt;font style=&quot;font-size: 17px;&quot;&gt;topic&lt;/font&gt;&lt;/div&gt;&lt;div style=&quot;font-size: 17px;&quot;&gt;&lt;i style=&quot;&quot;&gt;&lt;font style=&quot;font-size: 17px;&quot;&gt;http-success&lt;/font&gt;&lt;/i&gt;&lt;/div&gt;" style="shape=cylinder3;whiteSpace=wrap;html=1;boundedLbl=1;backgroundOutline=1;size=15;fillColor=#d5e8d4;strokeColor=#82b366;" parent="1" vertex="1">
          <mxGeometry x="1220" y="190" width="100" height="190" as="geometry" />
        </mxCell>
        <mxCell id="mRzZPIl0D3V7TroaUUCZ-11" value="&lt;font style=&quot;font-size: 17px;&quot;&gt;Kafka&lt;/font&gt;&lt;div style=&quot;font-size: 17px;&quot;&gt;&lt;font style=&quot;font-size: 17px;&quot;&gt;topic&lt;/font&gt;&lt;/div&gt;&lt;div style=&quot;font-size: 17px;&quot;&gt;&lt;i style=&quot;&quot;&gt;&lt;font style=&quot;font-size: 17px;&quot;&gt;http-error&lt;/font&gt;&lt;/i&gt;&lt;/div&gt;" style="shape=cylinder3;whiteSpace=wrap;html=1;boundedLbl=1;backgroundOutline=1;size=15;fillColor=#f8cecc;strokeColor=#b85450;" parent="1" vertex="1">
          <mxGeometry x="1230" y="460" width="100" height="190" as="geometry" />
        </mxCell>
        <mxCell id="mRzZPIl0D3V7TroaUUCZ-12" value="" style="group" parent="1" vertex="1" connectable="0">
          <mxGeometry x="310" y="823" width="710" height="110" as="geometry" />
        </mxCell>
        <mxCell id="opBTZJq-6XGTckG7SBnG-4" value="" style="rounded=0;whiteSpace=wrap;html=1;" parent="mRzZPIl0D3V7TroaUUCZ-12" vertex="1">
          <mxGeometry width="710" height="110" as="geometry" />
        </mxCell>
        <mxCell id="opBTZJq-6XGTckG7SBnG-6" value="JVM" style="text;html=1;align=center;verticalAlign=middle;whiteSpace=wrap;rounded=0;fontSize=15;" parent="mRzZPIl0D3V7TroaUUCZ-12" vertex="1">
          <mxGeometry x="294.71698113207543" y="4" width="80.37735849056604" height="30" as="geometry" />
        </mxCell>
        <mxCell id="opBTZJq-6XGTckG7SBnG-7" value="Connector" style="rounded=0;whiteSpace=wrap;html=1;fontSize=17;" parent="mRzZPIl0D3V7TroaUUCZ-12" vertex="1">
          <mxGeometry x="40.18867924528302" y="34" width="160.75471698113208" height="60" as="geometry" />
        </mxCell>
        <mxCell id="opBTZJq-6XGTckG7SBnG-8" value="Connector" style="rounded=0;whiteSpace=wrap;html=1;fontSize=17;" parent="mRzZPIl0D3V7TroaUUCZ-12" vertex="1">
          <mxGeometry x="254.52830188679243" y="34" width="160.75471698113208" height="60" as="geometry" />
        </mxCell>
        <mxCell id="opBTZJq-6XGTckG7SBnG-9" value="Connector" style="rounded=0;whiteSpace=wrap;html=1;fontSize=17;" parent="mRzZPIl0D3V7TroaUUCZ-12" vertex="1">
          <mxGeometry x="482.2641509433962" y="34" width="160.75471698113208" height="60" as="geometry" />
        </mxCell>
        <mxCell id="mRzZPIl0D3V7TroaUUCZ-25" value="" style="endArrow=classic;html=1;rounded=0;fillColor=#d5e8d4;strokeColor=#000000;exitX=0.328;exitY=0.015;exitDx=0;exitDy=0;exitPerimeter=0;" parent="1" source="TH8Eyh-qqzI3hUbTMs9G-1" edge="1">
          <mxGeometry width="50" height="50" relative="1" as="geometry">
            <mxPoint x="611" y="247" as="sourcePoint" />
            <mxPoint x="474.75657894736844" y="130" as="targetPoint" />
          </mxGeometry>
        </mxCell>
        <mxCell id="mRzZPIl0D3V7TroaUUCZ-26" value="" style="endArrow=classic;html=1;rounded=0;fillColor=#d5e8d4;strokeColor=#82b366;exitX=0.75;exitY=1;exitDx=0;exitDy=0;entryX=0.211;entryY=0.006;entryDx=0;entryDy=0;entryPerimeter=0;" parent="1" source="opBTZJq-6XGTckG7SBnG-19" target="TH8Eyh-qqzI3hUbTMs9G-1" edge="1">
          <mxGeometry width="50" height="50" relative="1" as="geometry">
            <mxPoint x="621" y="257" as="sourcePoint" />
            <mxPoint x="484.75657894736844" y="140" as="targetPoint" />
          </mxGeometry>
        </mxCell>
        <mxCell id="mRzZPIl0D3V7TroaUUCZ-27" value="" style="endArrow=classic;html=1;rounded=0;fillColor=#d5e8d4;strokeColor=#000000;exitX=0.6;exitY=0.003;exitDx=0;exitDy=0;entryX=0.5;entryY=1;entryDx=0;entryDy=0;exitPerimeter=0;" parent="1" source="TH8Eyh-qqzI3hUbTMs9G-1" edge="1">
          <mxGeometry width="50" height="50" relative="1" as="geometry">
            <mxPoint x="638" y="247" as="sourcePoint" />
            <mxPoint x="691" y="130" as="targetPoint" />
          </mxGeometry>
        </mxCell>
        <mxCell id="mRzZPIl0D3V7TroaUUCZ-28" value="" style="endArrow=classic;html=1;rounded=0;fillColor=#f8cecc;strokeColor=#b85450;exitX=0.58;exitY=0.995;exitDx=0;exitDy=0;entryX=0.75;entryY=0;entryDx=0;entryDy=0;exitPerimeter=0;" parent="1" target="TH8Eyh-qqzI3hUbTMs9G-1" edge="1">
          <mxGeometry width="50" height="50" relative="1" as="geometry">
            <mxPoint x="705.3999999999999" y="129.65000000000003" as="sourcePoint" />
            <mxPoint x="647.6800000000001" y="248.03999999999996" as="targetPoint" />
          </mxGeometry>
        </mxCell>
        <mxCell id="mRzZPIl0D3V7TroaUUCZ-43" value="retryable ?" style="strokeWidth=2;html=1;shape=mxgraph.flowchart.decision;whiteSpace=wrap;" parent="1" vertex="1">
          <mxGeometry x="740" y="420" width="80" height="90" as="geometry" />
        </mxCell>
        <mxCell id="mRzZPIl0D3V7TroaUUCZ-45" value="" style="endArrow=classic;html=1;rounded=0;fillColor=#f8cecc;strokeColor=#b85450;entryX=0.5;entryY=0;entryDx=0;entryDy=0;entryPerimeter=0;exitX=0.5;exitY=1;exitDx=0;exitDy=0;exitPerimeter=0;" parent="1" source="opBTZJq-6XGTckG7SBnG-26" target="mRzZPIl0D3V7TroaUUCZ-43" edge="1">
          <mxGeometry width="50" height="50" relative="1" as="geometry">
            <mxPoint x="830" y="545" as="sourcePoint" />
            <mxPoint x="1110" y="590" as="targetPoint" />
          </mxGeometry>
        </mxCell>
        <mxCell id="mRzZPIl0D3V7TroaUUCZ-48" value="&lt;font style=&quot;font-size: 25px;&quot;&gt;HTTP Sink&lt;/font&gt;&lt;div style=&quot;font-size: 25px;&quot;&gt;&lt;font style=&quot;font-size: 25px;&quot;&gt;Connector&lt;/font&gt;&lt;/div&gt;" style="text;html=1;align=center;verticalAlign=middle;whiteSpace=wrap;rounded=0;" parent="1" vertex="1">
          <mxGeometry x="340" y="210" width="140" height="30" as="geometry" />
        </mxCell>
        <mxCell id="opBTZJq-6XGTckG7SBnG-24" value="" style="endArrow=classic;html=1;rounded=0;exitX=1.03;exitY=0.584;exitDx=0;exitDy=0;fillColor=#f8cecc;strokeColor=#000000;exitPerimeter=0;entryX=0.033;entryY=0.56;entryDx=0;entryDy=0;entryPerimeter=0;" parent="1" source="opBTZJq-6XGTckG7SBnG-1" target="mRzZPIl0D3V7TroaUUCZ-1" edge="1">
          <mxGeometry width="50" height="50" relative="1" as="geometry">
            <mxPoint x="115" y="576" as="sourcePoint" />
            <mxPoint x="170" y="510" as="targetPoint" />
          </mxGeometry>
        </mxCell>
        <mxCell id="TH8Eyh-qqzI3hUbTMs9G-14" value="" style="group" parent="1" vertex="1" connectable="0">
          <mxGeometry x="840" y="198" width="130" height="332" as="geometry" />
        </mxCell>
        <mxCell id="TH8Eyh-qqzI3hUbTMs9G-11" value="" style="rounded=0;whiteSpace=wrap;html=1;dashed=1;" parent="TH8Eyh-qqzI3hUbTMs9G-14" vertex="1">
          <mxGeometry x="-10" width="140" height="332" as="geometry" />
        </mxCell>
        <mxCell id="ytLzVgo9kWeMUwoSOrhg-2" value="publisher&lt;div&gt;config&lt;/div&gt;" style="strokeWidth=2;html=1;shape=mxgraph.flowchart.decision;whiteSpace=wrap;" parent="TH8Eyh-qqzI3hUbTMs9G-14" vertex="1">
          <mxGeometry x="20" y="122" width="70" height="70" as="geometry" />
        </mxCell>
        <mxCell id="ytLzVgo9kWeMUwoSOrhg-3" value="Direct low level&lt;div&gt;kafka producer&lt;/div&gt;" style="rounded=0;whiteSpace=wrap;html=1;" parent="TH8Eyh-qqzI3hUbTMs9G-14" vertex="1">
          <mxGeometry x="2" y="12" width="120" height="60" as="geometry" />
        </mxCell>
        <mxCell id="ytLzVgo9kWeMUwoSOrhg-6" value="" style="endArrow=classic;html=1;rounded=0;fillColor=#d5e8d4;strokeColor=#000000;exitX=0.5;exitY=1;exitDx=0;exitDy=0;entryX=0.518;entryY=-0.009;entryDx=0;entryDy=0;exitPerimeter=0;dashed=1;entryPerimeter=0;" parent="TH8Eyh-qqzI3hUbTMs9G-14" source="ytLzVgo9kWeMUwoSOrhg-2" target="ytLzVgo9kWeMUwoSOrhg-4" edge="1">
          <mxGeometry width="50" height="50" relative="1" as="geometry">
            <mxPoint x="-90" y="112" as="sourcePoint" />
            <mxPoint x="-12" y="85" as="targetPoint" />
          </mxGeometry>
        </mxCell>
        <mxCell id="ytLzVgo9kWeMUwoSOrhg-5" value="" style="endArrow=classic;html=1;rounded=0;fillColor=#d5e8d4;strokeColor=#000000;exitX=0.5;exitY=0;exitDx=0;exitDy=0;entryX=0.5;entryY=1;entryDx=0;entryDy=0;exitPerimeter=0;dashed=1;" parent="TH8Eyh-qqzI3hUbTMs9G-14" source="ytLzVgo9kWeMUwoSOrhg-2" target="ytLzVgo9kWeMUwoSOrhg-3" edge="1">
          <mxGeometry width="50" height="50" relative="1" as="geometry">
            <mxPoint x="-160" y="232" as="sourcePoint" />
            <mxPoint x="-120" y="147" as="targetPoint" />
          </mxGeometry>
        </mxCell>
        <mxCell id="ytLzVgo9kWeMUwoSOrhg-4" value="&lt;font style=&quot;font-size: 11px;&quot;&gt;in memory queue&lt;/font&gt;&lt;div style=&quot;font-size: 11px;&quot;&gt;&lt;font style=&quot;font-size: 11px;&quot;&gt;+&lt;/font&gt;&lt;/div&gt;&lt;div style=&quot;font-size: 11px;&quot;&gt;&lt;font style=&quot;font-size: 11px;&quot;&gt;HTTP&lt;/font&gt;&lt;/div&gt;&lt;div style=&quot;font-size: 11px;&quot;&gt;&lt;font style=&quot;font-size: 11px;&quot;&gt;Source Connector&lt;/font&gt;&lt;/div&gt;" style="rounded=0;whiteSpace=wrap;html=1;" parent="TH8Eyh-qqzI3hUbTMs9G-14" vertex="1">
          <mxGeometry x="5" y="210" width="120" height="52" as="geometry" />
        </mxCell>
        <mxCell id="mRzZPIl0D3V7TroaUUCZ-21" value="" style="endArrow=classic;html=1;rounded=0;fillColor=#d5e8d4;strokeColor=#000000;exitX=1.015;exitY=0.583;exitDx=0;exitDy=0;exitPerimeter=0;entryX=-0.013;entryY=0.605;entryDx=0;entryDy=0;entryPerimeter=0;" parent="1" target="mRzZPIl0D3V7TroaUUCZ-15" edge="1">
          <mxGeometry width="50" height="50" relative="1" as="geometry">
            <mxPoint x="510.75" y="419.77" as="sourcePoint" />
            <mxPoint x="552" y="419.8784648187633" as="targetPoint" />
          </mxGeometry>
        </mxCell>
        <mxCell id="mRzZPIl0D3V7TroaUUCZ-23" value="" style="endArrow=classic;html=1;rounded=0;fillColor=#d5e8d4;strokeColor=#000000;exitX=1;exitY=0.25;exitDx=0;exitDy=0;entryX=0;entryY=0.5;entryDx=0;entryDy=0;entryPerimeter=0;" parent="1" source="TH8Eyh-qqzI3hUbTMs9G-3" target="opBTZJq-6XGTckG7SBnG-26" edge="1">
          <mxGeometry width="50" height="50" relative="1" as="geometry">
            <mxPoint x="690" y="410" as="sourcePoint" />
            <mxPoint x="790" y="370" as="targetPoint" />
          </mxGeometry>
        </mxCell>
        <mxCell id="TH8Eyh-qqzI3hUbTMs9G-6" value="" style="endArrow=classic;html=1;rounded=0;fillColor=#d5e8d4;strokeColor=#000000;exitX=0.017;exitY=0.499;exitDx=0;exitDy=0;exitPerimeter=0;" parent="1" source="mRzZPIl0D3V7TroaUUCZ-43" target="TH8Eyh-qqzI3hUbTMs9G-3" edge="1">
          <mxGeometry width="50" height="50" relative="1" as="geometry">
            <mxPoint x="678" y="408" as="sourcePoint" />
            <mxPoint x="710" y="345" as="targetPoint" />
          </mxGeometry>
        </mxCell>
        <mxCell id="mRzZPIl0D3V7TroaUUCZ-42" value="" style="endArrow=classic;html=1;rounded=0;fillColor=#f8cecc;strokeColor=#b85450;entryX=0.04;entryY=0.421;entryDx=0;entryDy=0;entryPerimeter=0;exitX=1;exitY=0.5;exitDx=0;exitDy=0;exitPerimeter=0;" parent="1" source="mRzZPIl0D3V7TroaUUCZ-43" target="mRzZPIl0D3V7TroaUUCZ-11" edge="1">
          <mxGeometry width="50" height="50" relative="1" as="geometry">
            <mxPoint x="715.3999999999999" y="139.65000000000003" as="sourcePoint" />
            <mxPoint x="654" y="265" as="targetPoint" />
          </mxGeometry>
        </mxCell>
        <mxCell id="mRzZPIl0D3V7TroaUUCZ-33" value="" style="group;fillColor=#f8cecc;strokeColor=#b85450;" parent="1" vertex="1" connectable="0">
          <mxGeometry x="1070" y="490" width="110" height="71" as="geometry" />
        </mxCell>
        <mxCell id="mRzZPIl0D3V7TroaUUCZ-34" value="" style="group" parent="mRzZPIl0D3V7TroaUUCZ-33" vertex="1" connectable="0">
          <mxGeometry width="110" height="71" as="geometry" />
        </mxCell>
        <mxCell id="mRzZPIl0D3V7TroaUUCZ-35" value="" style="shape=message;html=1;html=1;outlineConnect=0;labelPosition=center;verticalLabelPosition=bottom;align=center;verticalAlign=top;fillColor=#f8cecc;strokeColor=#b85450;" parent="mRzZPIl0D3V7TroaUUCZ-34" vertex="1">
          <mxGeometry width="110" height="71" as="geometry" />
        </mxCell>
        <mxCell id="mRzZPIl0D3V7TroaUUCZ-36" value="&lt;span style=&quot;font-size: 18px;&quot;&gt;error&lt;/span&gt;&lt;div&gt;&lt;span style=&quot;font-size: 18px;&quot;&gt;&lt;i&gt;(complete&lt;/i&gt;&lt;/span&gt;&lt;/div&gt;&lt;div&gt;&lt;span style=&quot;font-size: 18px;&quot;&gt;&lt;i&gt;exchange)&lt;/i&gt;&lt;/span&gt;&lt;/div&gt;" style="text;html=1;align=center;verticalAlign=middle;whiteSpace=wrap;rounded=0;" parent="mRzZPIl0D3V7TroaUUCZ-34" vertex="1">
          <mxGeometry x="30.15297860034702" y="27.35368421052631" width="46.31578947368421" height="10.649999999999999" as="geometry" />
        </mxCell>
        <mxCell id="mRzZPIl0D3V7TroaUUCZ-41" value="" style="endArrow=classic;html=1;rounded=0;fillColor=#d5e8d4;strokeColor=#82b366;exitX=1;exitY=0.5;exitDx=0;exitDy=0;entryX=0;entryY=0.5;entryDx=0;entryDy=0;entryPerimeter=0;exitPerimeter=0;" parent="1" source="opBTZJq-6XGTckG7SBnG-26" target="mRzZPIl0D3V7TroaUUCZ-10" edge="1">
          <mxGeometry width="50" height="50" relative="1" as="geometry">
            <mxPoint x="627" y="345" as="sourcePoint" />
            <mxPoint x="648" y="414" as="targetPoint" />
          </mxGeometry>
        </mxCell>
        <mxCell id="HtiEfCj0A7gehNwZgP48-1" value="&lt;font style=&quot;font-size: 27px;&quot;&gt;Cron Source Connector&lt;/font&gt;" style="rounded=0;whiteSpace=wrap;html=1;" vertex="1" parent="1">
          <mxGeometry x="322" y="580" width="660" height="140" as="geometry" />
        </mxCell>
        <mxCell id="HtiEfCj0A7gehNwZgP48-2" value="" style="html=1;verticalLabelPosition=bottom;align=center;labelBackgroundColor=#ffffff;verticalAlign=top;strokeWidth=2;strokeColor=#0080F0;shadow=0;dashed=0;shape=mxgraph.ios7.icons.alarm_clock;" vertex="1" parent="1">
          <mxGeometry x="333" y="590" width="27" height="30" as="geometry" />
        </mxCell>
        <mxCell id="HtiEfCj0A7gehNwZgP48-3" value="" style="endArrow=classic;html=1;rounded=0;entryX=0.855;entryY=1;entryDx=0;entryDy=-4.35;entryPerimeter=0;fillColor=#d5e8d4;strokeColor=#000000;exitX=0.099;exitY=0.267;exitDx=0;exitDy=0;exitPerimeter=0;" edge="1" parent="1" source="HtiEfCj0A7gehNwZgP48-2" target="opBTZJq-6XGTckG7SBnG-1">
          <mxGeometry width="50" height="50" relative="1" as="geometry">
            <mxPoint x="35" y="184" as="sourcePoint" />
            <mxPoint x="110" y="310" as="targetPoint" />
          </mxGeometry>
        </mxCell>
        <mxCell id="HtiEfCj0A7gehNwZgP48-9" value="" style="group" vertex="1" connectable="0" parent="1">
          <mxGeometry x="170" y="510" width="106.84" height="70" as="geometry" />
        </mxCell>
        <mxCell id="HtiEfCj0A7gehNwZgP48-4" value="" style="shape=message;html=1;html=1;outlineConnect=0;labelPosition=center;verticalLabelPosition=bottom;align=center;verticalAlign=top;fillColor=#dae8fc;strokeColor=#6c8ebf;" vertex="1" parent="HtiEfCj0A7gehNwZgP48-9">
          <mxGeometry width="106.84000000000003" height="70" as="geometry" />
        </mxCell>
        <mxCell id="HtiEfCj0A7gehNwZgP48-5" value="&lt;div style=&quot;font-size: 11px;&quot;&gt;&lt;font style=&quot;font-size: 11px;&quot;&gt;every30minutes.com&lt;/font&gt;&lt;/div&gt;&lt;div style=&quot;font-size: 11px;&quot;&gt;&lt;font style=&quot;font-size: 11px;&quot;&gt;GET&lt;/font&gt;&lt;/div&gt;&lt;div style=&quot;font-size: 11px;&quot;&gt;&lt;font style=&quot;font-size: 11px;&quot;&gt;/test&lt;/font&gt;&lt;/div&gt;" style="text;html=1;align=center;verticalAlign=middle;whiteSpace=wrap;rounded=0;" vertex="1" parent="HtiEfCj0A7gehNwZgP48-9">
          <mxGeometry x="5.223512030075178" y="44.669850552306734" width="96.39699248120304" height="11.666666666666671" as="geometry" />
        </mxCell>
        <mxCell id="HtiEfCj0A7gehNwZgP48-11" value="" style="html=1;verticalLabelPosition=bottom;align=center;labelBackgroundColor=#ffffff;verticalAlign=top;strokeWidth=2;strokeColor=#0080F0;shadow=0;dashed=0;shape=mxgraph.ios7.icons.alarm_clock;" vertex="1" parent="1">
          <mxGeometry x="333" y="640" width="27" height="30" as="geometry" />
        </mxCell>
        <mxCell id="mRzZPIl0D3V7TroaUUCZ-37" value="" style="group;fillColor=#dae8fc;strokeColor=#6c8ebf;" parent="1" vertex="1" connectable="0">
          <mxGeometry x="1070" y="260" width="110" height="60" as="geometry" />
        </mxCell>
        <mxCell id="mRzZPIl0D3V7TroaUUCZ-38" value="" style="shape=message;html=1;html=1;outlineConnect=0;labelPosition=center;verticalLabelPosition=bottom;align=center;verticalAlign=top;fillColor=#d5e8d4;strokeColor=#82b366;" parent="mRzZPIl0D3V7TroaUUCZ-37" vertex="1">
          <mxGeometry x="-20" y="-10" width="130" height="70" as="geometry" />
        </mxCell>
        <mxCell id="mRzZPIl0D3V7TroaUUCZ-39" value="&lt;div style=&quot;font-size: 18px;&quot;&gt;success&lt;/div&gt;&lt;div style=&quot;font-size: 18px;&quot;&gt;&lt;span style=&quot;background-color: initial;&quot;&gt;(&lt;i&gt;complete&lt;/i&gt;&lt;/span&gt;&lt;i&gt;&lt;br&gt;&lt;/i&gt;&lt;/div&gt;&lt;div style=&quot;font-size: 18px;&quot;&gt;&lt;div style=&quot;font-size: 12px;&quot;&gt;&lt;span style=&quot;font-size: 18px;&quot;&gt;&lt;i&gt;exchange&lt;/i&gt;)&lt;/span&gt;&lt;/div&gt;&lt;/div&gt;" style="text;html=1;align=center;verticalAlign=middle;whiteSpace=wrap;rounded=0;" parent="mRzZPIl0D3V7TroaUUCZ-37" vertex="1">
          <mxGeometry x="11.210526315789473" y="15.231578947368426" width="67.36842105263158" height="18.000000000000004" as="geometry" />
        </mxCell>
        <mxCell id="HtiEfCj0A7gehNwZgP48-12" value="&lt;div style=&quot;&quot;&gt;&lt;font style=&quot;font-size: 14px;&quot;&gt;every 30 minutes&lt;/font&gt;&lt;/div&gt;" style="text;html=1;align=center;verticalAlign=middle;whiteSpace=wrap;rounded=0;" vertex="1" parent="1">
          <mxGeometry x="360" y="594" width="116" height="22" as="geometry" />
        </mxCell>
        <mxCell id="HtiEfCj0A7gehNwZgP48-13" value="&lt;div style=&quot;&quot;&gt;&lt;font style=&quot;font-size: 16px;&quot;&gt;every day&lt;/font&gt;&lt;/div&gt;" style="text;html=1;align=center;verticalAlign=middle;whiteSpace=wrap;rounded=0;" vertex="1" parent="1">
          <mxGeometry x="350" y="647.5" width="103.32" height="15" as="geometry" />
        </mxCell>
        <mxCell id="HtiEfCj0A7gehNwZgP48-14" value="" style="endArrow=classic;html=1;rounded=0;exitX=-0.015;exitY=0.56;exitDx=0;exitDy=0;exitPerimeter=0;entryX=0.36;entryY=1.002;entryDx=0;entryDy=0;entryPerimeter=0;" edge="1" parent="1" source="HtiEfCj0A7gehNwZgP48-11" target="opBTZJq-6XGTckG7SBnG-1">
          <mxGeometry width="50" height="50" relative="1" as="geometry">
            <mxPoint x="290" y="490" as="sourcePoint" />
            <mxPoint x="340" y="440" as="targetPoint" />
            <Array as="points">
              <mxPoint x="130" y="650" />
              <mxPoint x="80" y="570" />
            </Array>
          </mxGeometry>
        </mxCell>
        <mxCell id="HtiEfCj0A7gehNwZgP48-15" value="" style="group" vertex="1" connectable="0" parent="1">
          <mxGeometry x="170" y="620" width="106.84" height="70" as="geometry" />
        </mxCell>
        <mxCell id="HtiEfCj0A7gehNwZgP48-7" value="" style="shape=message;html=1;html=1;outlineConnect=0;labelPosition=center;verticalLabelPosition=bottom;align=center;verticalAlign=top;fillColor=#dae8fc;strokeColor=#6c8ebf;" vertex="1" parent="HtiEfCj0A7gehNwZgP48-15">
          <mxGeometry width="106.84000000000003" height="70" as="geometry" />
        </mxCell>
        <mxCell id="HtiEfCj0A7gehNwZgP48-10" value="&lt;div style=&quot;font-size: 11px;&quot;&gt;&lt;font style=&quot;font-size: 11px;&quot;&gt;everyday.com&lt;/font&gt;&lt;/div&gt;&lt;div style=&quot;font-size: 11px;&quot;&gt;&lt;font style=&quot;font-size: 11px;&quot;&gt;PUT&lt;/font&gt;&lt;/div&gt;&lt;div style=&quot;font-size: 11px;&quot;&gt;&lt;font style=&quot;font-size: 11px;&quot;&gt;/bar&lt;/font&gt;&lt;/div&gt;" style="text;html=1;align=center;verticalAlign=middle;whiteSpace=wrap;rounded=0;" vertex="1" parent="HtiEfCj0A7gehNwZgP48-15">
          <mxGeometry x="5.223512030075178" y="42.78096166341785" width="96.39699248120304" height="11.666666666666671" as="geometry" />
        </mxCell>
        <mxCell id="HtiEfCj0A7gehNwZgP48-16" value="application 1" style="rounded=1;whiteSpace=wrap;html=1;" vertex="1" parent="1">
          <mxGeometry x="30" y="70" width="120" height="60" as="geometry" />
        </mxCell>
        <mxCell id="HtiEfCj0A7gehNwZgP48-17" value="application 2" style="rounded=1;whiteSpace=wrap;html=1;" vertex="1" parent="1">
          <mxGeometry x="40" y="830" width="120" height="60" as="geometry" />
        </mxCell>
        <mxCell id="HtiEfCj0A7gehNwZgP48-23" value="" style="html=1;verticalLabelPosition=bottom;align=center;labelBackgroundColor=#ffffff;verticalAlign=top;strokeWidth=2;strokeColor=#0080F0;shadow=0;dashed=0;shape=mxgraph.ios7.icons.alarm_clock;" vertex="1" parent="1">
          <mxGeometry x="333" y="680" width="27" height="30" as="geometry" />
        </mxCell>
        <mxCell id="HtiEfCj0A7gehNwZgP48-24" value="&lt;div style=&quot;&quot;&gt;&lt;font style=&quot;font-size: 16px;&quot;&gt;...&lt;/font&gt;&lt;/div&gt;" style="text;html=1;align=center;verticalAlign=middle;whiteSpace=wrap;rounded=0;" vertex="1" parent="1">
          <mxGeometry x="361.68" y="685" width="33.32" height="15" as="geometry" />
        </mxCell>
      </root>
    </mxGraphModel>
  </diagram>
</mxfile>
